<?xml version="1.0" standalone="no"?><!DOCTYPE svg PUBLIC "-//W3C//DTD SVG 1.1//EN" "http://www.w3.org/Graphics/SVG/1.1/DTD/svg11.dtd"><svg xmlns:xlink="http://www.w3.org/1999/xlink" version="1.1" style="font-family:open sans;font-size:12px;" xmlns="http://www.w3.org/2000/svg" width="1040" height="410"><desc>Created with Highcharts 4.1.5</desc><defs><clipPath id="highcharts-63"><rect x="0" y="0" width="863" height="206"></rect></clipPath></defs><rect x="0" y="0" width="1040" height="410" strokeWidth="0" fill="#FFFFFF" class=" highcharts-background"></rect><g class="highcharts-grid" ></g><g class="highcharts-grid" ></g><g class="highcharts-grid" ></g><g class="highcharts-grid" ><path fill="none" d="M 81 337.5 L 944 337.5" stroke="#D8D8D8" stroke-width="1"  opacity="1"></path><path fill="none" d="M 81 281.5 L 944 281.5" stroke="#D8D8D8" stroke-width="1"  opacity="1"></path><path fill="none" d="M 81 225.5 L 944 225.5" stroke="#D8D8D8" stroke-width="1"  opacity="1"></path><path fill="none" d="M 81 168.5 L 944 168.5" stroke="#D8D8D8" stroke-width="1"  opacity="1"></path></g><g class="highcharts-axis" ><path fill="none" d="M 166.5 337 L 166.5 347" stroke="#C0D0E0" stroke-width="1" opacity="1"></path><path fill="none" d="M 253.5 337 L 253.5 347" stroke="#C0D0E0" stroke-width="1" opacity="1"></path><path fill="none" d="M 339.5 337 L 339.5 347" stroke="#C0D0E0" stroke-width="1" opacity="1"></path><path fill="none" d="M 425.5 337 L 425.5 347" stroke="#C0D0E0" stroke-width="1" opacity="1"></path><path fill="none" d="M 512.5 337 L 512.5 347" stroke="#C0D0E0" stroke-width="1" opacity="1"></path><path fill="none" d="M 598.5 337 L 598.5 347" stroke="#C0D0E0" stroke-width="1" opacity="1"></path><path fill="none" d="M 684.5 337 L 684.5 347" stroke="#C0D0E0" stroke-width="1" opacity="1"></path><path fill="none" d="M 770.5 337 L 770.5 347" stroke="#C0D0E0" stroke-width="1" opacity="1"></path><path fill="none" d="M 857.5 337 L 857.5 347" stroke="#C0D0E0" stroke-width="1" opacity="1"></path><path fill="none" d="M 944.5 337 L 944.5 347" stroke="#C0D0E0" stroke-width="1" opacity="1"></path><path fill="none" d="M 80.5 337 L 80.5 347" stroke="#C0D0E0" stroke-width="1" opacity="1"></path><path fill="none" d="M 81 337.5 L 944 337.5" stroke="#C0D0E0" stroke-width="1"  visibility="visible"></path></g><g class="highcharts-axis" ><path fill="none" d="M 166.5 131 L 166.5 121" stroke="#C0D0E0" stroke-width="1" opacity="1"></path><path fill="none" d="M 253.5 131 L 253.5 121" stroke="#C0D0E0" stroke-width="1" opacity="1"></path><path fill="none" d="M 339.5 131 L 339.5 121" stroke="#C0D0E0" stroke-width="1" opacity="1"></path><path fill="none" d="M 425.5 131 L 425.5 121" stroke="#C0D0E0" stroke-width="1" opacity="1"></path><path fill="none" d="M 512.5 131 L 512.5 121" stroke="#C0D0E0" stroke-width="1" opacity="1"></path><path fill="none" d="M 598.5 131 L 598.5 121" stroke="#C0D0E0" stroke-width="1" opacity="1"></path><path fill="none" d="M 684.5 131 L 684.5 121" stroke="#C0D0E0" stroke-width="1" opacity="1"></path><path fill="none" d="M 770.5 131 L 770.5 121" stroke="#C0D0E0" stroke-width="1" opacity="1"></path><path fill="none" d="M 857.5 131 L 857.5 121" stroke="#C0D0E0" stroke-width="1" opacity="1"></path><path fill="none" d="M 944.5 131 L 944.5 121" stroke="#C0D0E0" stroke-width="1" opacity="1"></path><path fill="none" d="M 80.5 131 L 80.5 121" stroke="#C0D0E0" stroke-width="1" opacity="1"></path><path fill="none" d="M 81 130.5 L 944 130.5" stroke="#C0D0E0" stroke-width="1"  visibility="visible"></path></g><g class="highcharts-axis" ><text x="1016.3515625"  text-anchor="middle" transform="translate(0,0) rotate(90 1016.3515625 234)" class=" highcharts-yaxis-title" style="color:#000000;fill:#000000;" visibility="visible" y="234"><tspan>Bedsheet tanglings</tspan></text></g><g class="highcharts-axis" ><text x="23.90625"  text-anchor="middle" transform="translate(0,0) rotate(270 23.90625 234)" class=" highcharts-yaxis-title" style="color:#ba0f27;fill:#ba0f27;" visibility="visible" y="234"><tspan>Cheese consumed</tspan></text></g><g class="highcharts-series-group" ><g class="highcharts-series" visibility="visible"  transform="translate(81,131) scale(1 1)" clip-path="url(#highcharts-63)"><path fill="none" d="M 43.15 168.62571428571428 C 43.15 168.62571428571428 94.92999999999999 141.37485714285714 129.45 130.66285714285715 C 163.96999999999997 119.95085714285715 181.23 115.0657142857143 215.75 115.0657142857143 C 250.26999999999998 115.0657142857143 267.53 118.59714285714287 302.04999999999995 118.59714285714287 C 336.57 118.59714285714287 353.83 89.46285714285715 388.34999999999997 89.46285714285715 C 422.87 89.46285714285715 440.12999999999994 96.23142857142858 474.65 96.23142857142858 C 509.1699999999999 96.23142857142858 526.43 80.2222857142857 560.9499999999999 70.33428571428573 C 595.47 60.44628571428571 612.7299999999999 55.50228571428574 647.25 46.79142857142858 C 681.77 38.08057142857145 699.03 26.78 733.55 26.78 C 768.0699999999999 26.78 819.8499999999999 53.85428571428574 819.8499999999999 53.85428571428574" stroke="#000000" stroke-width="2"  stroke-linejoin="round" stroke-linecap="round"></path></g><g class="highcharts-markers" visibility="visible"  transform="translate(81,131) scale(1 1)" clip-path="none"><path fill="#000000" d="M 819 49.85428571428574 C 824.328 49.85428571428574 824.328 57.85428571428574 819 57.85428571428574 C 813.672 57.85428571428574 813.672 49.85428571428574 819 49.85428571428574 Z"></path><path fill="#000000" d="M 733 22.78 C 738.328 22.78 738.328 30.78 733 30.78 C 727.672 30.78 727.672 22.78 733 22.78 Z"></path><path fill="#000000" d="M 647 42.79142857142858 C 652.328 42.79142857142858 652.328 50.79142857142858 647 50.79142857142858 C 641.672 50.79142857142858 641.672 42.79142857142858 647 42.79142857142858 Z"></path><path fill="#000000" d="M 560 66.33428571428573 C 565.328 66.33428571428573 565.328 74.33428571428573 560 74.33428571428573 C 554.672 74.33428571428573 554.672 66.33428571428573 560 66.33428571428573 Z"></path><path fill="#000000" d="M 474 92.23142857142858 C 479.328 92.23142857142858 479.328 100.23142857142858 474 100.23142857142858 C 468.672 100.23142857142858 468.672 92.23142857142858 474 92.23142857142858 Z"></path><path fill="#000000" d="M 388 85.46285714285715 C 393.328 85.46285714285715 393.328 93.46285714285715 388 93.46285714285715 C 382.672 93.46285714285715 382.672 85.46285714285715 388 85.46285714285715 Z"></path><path fill="#000000" d="M 302 114.59714285714287 C 307.328 114.59714285714287 307.328 122.59714285714287 302 122.59714285714287 C 296.672 122.59714285714287 296.672 114.59714285714287 302 114.59714285714287 Z"></path><path fill="#000000" d="M 215 111.0657142857143 C 220.328 111.0657142857143 220.328 119.0657142857143 215 119.0657142857143 C 209.672 119.0657142857143 209.672 111.0657142857143 215 111.0657142857143 Z"></path><path fill="#000000" d="M 129 126.66285714285715 C 134.328 126.66285714285715 134.328 134.66285714285715 129 134.66285714285715 C 123.672 134.66285714285715 123.672 126.66285714285715 129 126.66285714285715 Z"></path><path fill="#000000" d="M 43 164.62571428571428 C 48.328 164.62571428571428 48.328 172.62571428571428 43 172.62571428571428 C 37.672 172.62571428571428 37.672 164.62571428571428 43 164.62571428571428 Z"></path></g><g class="highcharts-series" visibility="visible"  transform="translate(81,131) scale(1 1)" clip-path="url(#highcharts-63)"><path fill="none" d="M 43.15 157.30909090909088 C 43.15 157.30909090909088 94.92999999999999 151.31636363636355 129.45 146.0727272727272 C 163.96999999999997 140.82909090909087 181.23 134.83636363636364 215.75 131.0909090909091 C 250.26999999999998 127.34545454545454 267.53 131.0909090909091 302.04999999999995 127.3454545454545 C 336.57 123.59999999999991 353.83 109.36727272727269 388.34999999999997 101.12727272727271 C 422.87 92.88727272727272 440.12999999999994 95.88363636363641 474.65 86.14545454545457 C 509.1699999999999 76.40727272727275 526.43 62.923636363636305 560.9499999999999 52.43636363636358 C 595.47 41.94909090909081 612.7299999999999 33.70909090909086 647.25 33.70909090909086 C 681.77 33.70909090909086 699.03 48.690909090909 733.55 48.690909090909 C 768.0699999999999 48.690909090909 819.8499999999999 44.94545454545465 819.8499999999999 44.94545454545465" stroke="#ba0f27" stroke-width="2"  stroke-linejoin="round" stroke-linecap="round"></path></g><g class="highcharts-markers" visibility="visible"  transform="translate(81,131) scale(1 1)" clip-path="none"><path fill="#ba0f27" d="M 819 40.94545454545465 L 823 44.94545454545465 819 48.94545454545465 815 44.94545454545465 Z"></path><path fill="#ba0f27" d="M 733 44.690909090909 L 737 48.690909090909 733 52.690909090909 729 48.690909090909 Z"></path><path fill="#ba0f27" d="M 647 29.70909090909086 L 651 33.70909090909086 647 37.70909090909086 643 33.70909090909086 Z"></path><path fill="#ba0f27" d="M 560 48.43636363636358 L 564 52.43636363636358 560 56.43636363636358 556 52.43636363636358 Z"></path><path fill="#ba0f27" d="M 474 82.14545454545457 L 478 86.14545454545457 474 90.14545454545457 470 86.14545454545457 Z"></path><path fill="#ba0f27" d="M 388 97.12727272727271 L 392 101.12727272727271 388 105.12727272727271 384 101.12727272727271 Z"></path><path fill="#ba0f27" d="M 302 123.3454545454545 L 306 127.3454545454545 302 131.34545454545452 298 127.3454545454545 Z"></path><path fill="#ba0f27" d="M 215 127.0909090909091 L 219 131.0909090909091 215 135.0909090909091 211 131.0909090909091 Z"></path><path fill="#ba0f27" d="M 129 142.0727272727272 L 133 146.0727272727272 129 150.0727272727272 125 146.0727272727272 Z"></path><path fill="#ba0f27" d="M 43 153.30909090909088 L 47 157.30909090909088 43 161.30909090909088 39 157.30909090909088 Z"></path></g></g><text x="520" text-anchor="middle" class="highcharts-title"  style="color:#777;font-size:18px;fill:#777;width:976px;" y="24"><tspan style="fill:#ba0f27;font-size:24px;font-weight:bold;font-family: 'lora'">Per capita cheese consumption</tspan><tspan style="font-family: 'lora'" x="520" dy="21"> correlates with </tspan><tspan style="fill:#000000;font-size:24px;font-weight:bold;font-family: 'lora'" x="520" dy="29">Number of people who died by becoming tangled in their bedsheets</tspan></text><g class="highcharts-legend"  transform="translate(388,370)"><g ><g><g class="highcharts-legend-item"  transform="translate(8,3)"><path fill="none" d="M 0 11 L 16 11" stroke="#000000" stroke-width="2"></path><path fill="#000000" d="M 8 7 C 13.328 7 13.328 15 8 15 C 2.6719999999999997 15 2.6719999999999997 7 8 7 Z"></path><text x="21" style="color:#333333;font-size:12px;font-weight:bold;cursor:pointer;fill:#333333;" text-anchor="start"  y="15"><tspan>Bedsheet tanglings</tspan></text></g><g class="highcharts-legend-item"  transform="translate(144.6796875,3)"><path fill="none" d="M 0 11 L 16 11" stroke="#ba0f27" stroke-width="2"></path><path fill="#ba0f27" d="M 8 7 L 12 11 8 15 4 11 Z"></path><text x="21" y="15" style="color:#333333;font-size:12px;font-weight:bold;cursor:pointer;fill:#333333;" text-anchor="start" ><tspan>Cheese consumed</tspan></text></g></g></g></g><g class="highcharts-axis-labels highcharts-xaxis-labels" ><text x="124.15" style="color:#000000;cursor:default;font-size:11px;fill:#000000;width:76px;text-overflow:clip;" text-anchor="middle" transform="translate(0,0)" y="356" opacity="1">2000</text><text x="210.45" style="color:#000000;cursor:default;font-size:11px;fill:#000000;width:76px;text-overflow:clip;" text-anchor="middle" transform="translate(0,0)" y="356" opacity="1">2001</text><text x="296.75" style="color:#000000;cursor:default;font-size:11px;fill:#000000;width:76px;text-overflow:clip;" text-anchor="middle" transform="translate(0,0)" y="356" opacity="1">2002</text><text x="383.05" style="color:#000000;cursor:default;font-size:11px;fill:#000000;width:76px;text-overflow:clip;" text-anchor="middle" transform="translate(0,0)" y="356" opacity="1">2003</text><text x="469.35" style="color:#000000;cursor:default;font-size:11px;fill:#000000;width:76px;text-overflow:clip;" text-anchor="middle" transform="translate(0,0)" y="356" opacity="1">2004</text><text x="555.65" style="color:#000000;cursor:default;font-size:11px;fill:#000000;width:76px;text-overflow:clip;" text-anchor="middle" transform="translate(0,0)" y="356" opacity="1">2005</text><text x="641.9499999999999" style="color:#000000;cursor:default;font-size:11px;fill:#000000;width:76px;text-overflow:clip;" text-anchor="middle" transform="translate(0,0)" y="356" opacity="1">2006</text><text x="728.25" style="color:#000000;cursor:default;font-size:11px;fill:#000000;width:76px;text-overflow:clip;" text-anchor="middle" transform="translate(0,0)" y="356" opacity="1">2007</text><text x="814.55" style="color:#000000;cursor:default;font-size:11px;fill:#000000;width:76px;text-overflow:clip;" text-anchor="middle" transform="translate(0,0)" y="356" opacity="1">2008</text><text x="900.85" style="color:#000000;cursor:default;font-size:11px;fill:#000000;width:76px;text-overflow:clip;" text-anchor="middle" transform="translate(0,0)" y="356" opacity="1">2009</text></g><g class="highcharts-axis-labels highcharts-xaxis-labels" ><text x="124.15" style="color:#ba0f27;cursor:default;font-size:11px;fill:#ba0f27;width:76px;text-overflow:clip;" text-anchor="middle" transform="translate(0,0)" y="116" opacity="1">2000</text><text x="210.45" style="color:#ba0f27;cursor:default;font-size:11px;fill:#ba0f27;width:76px;text-overflow:clip;" text-anchor="middle" transform="translate(0,0)" y="116" opacity="1">2001</text><text x="296.75" style="color:#ba0f27;cursor:default;font-size:11px;fill:#ba0f27;width:76px;text-overflow:clip;" text-anchor="middle" transform="translate(0,0)" y="116" opacity="1">2002</text><text x="383.05" style="color:#ba0f27;cursor:default;font-size:11px;fill:#ba0f27;width:76px;text-overflow:clip;" text-anchor="middle" transform="translate(0,0)" y="116" opacity="1">2003</text><text x="469.35" style="color:#ba0f27;cursor:default;font-size:11px;fill:#ba0f27;width:76px;text-overflow:clip;" text-anchor="middle" transform="translate(0,0)" y="116" opacity="1">2004</text><text x="555.65" style="color:#ba0f27;cursor:default;font-size:11px;fill:#ba0f27;width:76px;text-overflow:clip;" text-anchor="middle" transform="translate(0,0)" y="116" opacity="1">2005</text><text x="641.9499999999999" style="color:#ba0f27;cursor:default;font-size:11px;fill:#ba0f27;width:76px;text-overflow:clip;" text-anchor="middle" transform="translate(0,0)" y="116" opacity="1">2006</text><text x="728.25" style="color:#ba0f27;cursor:default;font-size:11px;fill:#ba0f27;width:76px;text-overflow:clip;" text-anchor="middle" transform="translate(0,0)" y="116" opacity="1">2007</text><text x="814.55" style="color:#ba0f27;cursor:default;font-size:11px;fill:#ba0f27;width:76px;text-overflow:clip;" text-anchor="middle" transform="translate(0,0)" y="116" opacity="1">2008</text><text x="900.85" style="color:#ba0f27;cursor:default;font-size:11px;fill:#ba0f27;width:76px;text-overflow:clip;" text-anchor="middle" transform="translate(0,0)" y="116" opacity="1">2009</text></g><g class="highcharts-axis-labels highcharts-yaxis-labels" ><text x="959" style="color:#000000;cursor:default;font-size:11px;fill:#000000;width:333px;text-overflow:clip;" text-anchor="start" transform="translate(0,0)" y="342" opacity="1"><tspan>200 deaths</tspan></text><text x="959" style="color:#000000;cursor:default;font-size:11px;fill:#000000;width:333px;text-overflow:clip;" text-anchor="start" transform="translate(0,0)" y="283" opacity="1"><tspan>400 deaths</tspan></text><text x="959" style="color:#000000;cursor:default;font-size:11px;fill:#000000;width:333px;text-overflow:clip;" text-anchor="start" transform="translate(0,0)" y="224" opacity="1"><tspan>600 deaths</tspan></text><text x="959" style="color:#000000;cursor:default;font-size:11px;fill:#000000;width:333px;text-overflow:clip;" text-anchor="start" transform="translate(0,0)" y="165" opacity="1"><tspan>800 deaths</tspan></text></g><g class="highcharts-axis-labels highcharts-yaxis-labels" ><text x="66" style="color:#ba0f27;cursor:default;font-size:11px;fill:#ba0f27;width:333px;text-overflow:clip;" text-anchor="end" transform="translate(0,0)" y="342" opacity="1">28.5lbs</text><text x="66" style="color:#ba0f27;cursor:default;font-size:11px;fill:#ba0f27;width:333px;text-overflow:clip;" text-anchor="end" transform="translate(0,0)" y="285" opacity="1">30lbs</text><text x="66" style="color:#ba0f27;cursor:default;font-size:11px;fill:#ba0f27;width:333px;text-overflow:clip;" text-anchor="end" transform="translate(0,0)" y="229" opacity="1">31.5lbs</text><text x="66" style="color:#ba0f27;cursor:default;font-size:11px;fill:#ba0f27;width:333px;text-overflow:clip;" text-anchor="end" transform="translate(0,0)" y="173" opacity="1">33lbs</text></g><g class="highcharts-tooltip"  style="cursor:default;padding:0;white-space:nowrap;" transform="translate(0,-9999)"><path fill="none" d="M 3 0 L 13 0 C 16 0 16 0 16 3 L 16 13 C 16 16 16 16 13 16 L 3 16 C 0 16 0 16 0 13 L 0 3 C 0 0 0 0 3 0"  stroke="black" stroke-opacity="0.049999999999999996" stroke-width="5" transform="translate(1, 1)"></path><path fill="none" d="M 3 0 L 13 0 C 16 0 16 0 16 3 L 16 13 C 16 16 16 16 13 16 L 3 16 C 0 16 0 16 0 13 L 0 3 C 0 0 0 0 3 0"  stroke="black" stroke-opacity="0.09999999999999999" stroke-width="3" transform="translate(1, 1)"></path><path fill="none" d="M 3 0 L 13 0 C 16 0 16 0 16 3 L 16 13 C 16 16 16 16 13 16 L 3 16 C 0 16 0 16 0 13 L 0 3 C 0 0 0 0 3 0"  stroke="black" stroke-opacity="0.15" stroke-width="1" transform="translate(1, 1)"></path><path fill="rgb(249, 249, 249)" fill-opacity=" .85" d="M 3 0 L 13 0 C 16 0 16 0 16 3 L 16 13 C 16 16 16 16 13 16 L 3 16 C 0 16 0 16 0 13 L 0 3 C 0 0 0 0 3 0"></path><text x="8"  style="font-size:12px;color:#333333;fill:#333333;" transform="translate(0,20)"></text></g><text x="1030" text-anchor="end"  style="cursor:pointer;color:#909090;font-size:9px;fill:#909090;" y="405">tylervigen.com</text></svg>